<svg width="2000" height="2000" viewBox="0 0 2000 2000" fill="none" xmlns="http://www.w3.org/2000/svg">
<path d="M220.75 1277C206.083 1277 193.583 1274.33 183.25 1269C173.083 1263.67 164.333 1256.5 157 1247.5L176.5 1229.25C182.667 1236.75 189.417 1242.42 196.75 1246.25C204.25 1250.08 212.75 1252 222.25 1252C233.417 1252 241.833 1249.5 247.5 1244.5C253.167 1239.5 256 1232.75 256 1224.25C256 1217.42 254 1212 250 1208C246 1204 238.917 1201 228.75 1199L213.25 1196.25C196.25 1193.08 183.5 1187.5 175 1179.5C166.5 1171.5 162.25 1160.5 162.25 1146.5C162.25 1138.83 163.667 1131.92 166.5 1125.75C169.5 1119.42 173.583 1114.17 178.75 1110C184.083 1105.67 190.5 1102.33 198 1100C205.5 1097.67 213.917 1096.5 223.25 1096.5C236.417 1096.5 247.833 1098.83 257.5 1103.5C267.167 1108 275.417 1114.58 282.25 1123.25L262.5 1140.75C258 1134.92 252.5 1130.25 246 1126.75C239.5 1123.25 231.417 1121.5 221.75 1121.5C211.75 1121.5 204 1123.5 198.5 1127.5C193 1131.5 190.25 1137.33 190.25 1145C190.25 1152.33 192.5 1157.83 197 1161.5C201.5 1165 208.5 1167.67 218 1169.5L233.5 1172.75C251 1176.08 263.75 1181.75 271.75 1189.75C279.917 1197.75 284 1208.75 284 1222.75C284 1230.92 282.583 1238.33 279.75 1245C276.917 1251.67 272.75 1257.42 267.25 1262.25C261.917 1266.92 255.333 1270.58 247.5 1273.25C239.667 1275.75 230.75 1277 220.75 1277ZM388.514 1124.5V1274H360.264V1124.5H308.264V1099.5H440.514V1124.5H388.514ZM570.693 1274L554.943 1226.75H489.693L474.443 1274H445.693L505.193 1099.5H540.693L600.193 1274H570.693ZM522.943 1125.5H521.693L496.443 1202.5H547.943L522.943 1125.5ZM685.613 1124.5V1274H657.363V1124.5H605.363V1099.5H737.613V1124.5H685.613ZM775.15 1274V1099.5H886.9V1124.5H803.4V1173H879.15V1198H803.4V1249H886.9V1274H775.15ZM1054.68 1277C1040.01 1277 1027.51 1274.33 1017.18 1269C1007.01 1263.67 998.259 1256.5 990.926 1247.5L1010.43 1229.25C1016.59 1236.75 1023.34 1242.42 1030.68 1246.25C1038.18 1250.08 1046.68 1252 1056.18 1252C1067.34 1252 1075.76 1249.5 1081.43 1244.5C1087.09 1239.5 1089.93 1232.75 1089.93 1224.25C1089.93 1217.42 1087.93 1212 1083.93 1208C1079.93 1204 1072.84 1201 1062.68 1199L1047.18 1196.25C1030.18 1193.08 1017.43 1187.5 1008.93 1179.5C1000.43 1171.5 996.176 1160.5 996.176 1146.5C996.176 1138.83 997.592 1131.92 1000.43 1125.75C1003.43 1119.42 1007.51 1114.17 1012.68 1110C1018.01 1105.67 1024.43 1102.33 1031.93 1100C1039.43 1097.67 1047.84 1096.5 1057.18 1096.5C1070.34 1096.5 1081.76 1098.83 1091.43 1103.5C1101.09 1108 1109.34 1114.58 1116.18 1123.25L1096.43 1140.75C1091.93 1134.92 1086.43 1130.25 1079.93 1126.75C1073.43 1123.25 1065.34 1121.5 1055.68 1121.5C1045.68 1121.5 1037.93 1123.5 1032.43 1127.5C1026.93 1131.5 1024.18 1137.33 1024.18 1145C1024.18 1152.33 1026.43 1157.83 1030.93 1161.5C1035.43 1165 1042.43 1167.67 1051.93 1169.5L1067.43 1172.75C1084.93 1176.08 1097.68 1181.75 1105.68 1189.75C1113.84 1197.75 1117.93 1208.75 1117.93 1222.75C1117.93 1230.92 1116.51 1238.33 1113.68 1245C1110.84 1251.67 1106.68 1257.42 1101.18 1262.25C1095.84 1266.92 1089.26 1270.58 1081.43 1273.25C1073.59 1275.75 1064.68 1277 1054.68 1277ZM1229.34 1277C1218.01 1277 1207.67 1275.08 1198.34 1271.25C1189.17 1267.25 1181.26 1261.5 1174.59 1254C1168.09 1246.33 1163.01 1236.92 1159.34 1225.75C1155.84 1214.42 1154.09 1201.42 1154.09 1186.75C1154.09 1172.08 1155.84 1159.17 1159.34 1148C1163.01 1136.67 1168.09 1127.25 1174.59 1119.75C1181.26 1112.08 1189.17 1106.33 1198.34 1102.5C1207.67 1098.5 1218.01 1096.5 1229.34 1096.5C1240.67 1096.5 1250.92 1098.5 1260.09 1102.5C1269.42 1106.33 1277.34 1112.08 1283.84 1119.75C1290.51 1127.25 1295.59 1136.67 1299.09 1148C1302.76 1159.17 1304.59 1172.08 1304.59 1186.75C1304.59 1201.42 1302.76 1214.42 1299.09 1225.75C1295.59 1236.92 1290.51 1246.33 1283.84 1254C1277.34 1261.5 1269.42 1267.25 1260.09 1271.25C1250.92 1275.08 1240.67 1277 1229.34 1277ZM1229.34 1251.75C1236.01 1251.75 1242.09 1250.58 1247.59 1248.25C1253.26 1245.92 1258.01 1242.58 1261.84 1238.25C1265.84 1233.75 1268.92 1228.33 1271.09 1222C1273.26 1215.67 1274.34 1208.5 1274.34 1200.5V1173C1274.34 1165 1273.26 1157.83 1271.09 1151.5C1268.92 1145.17 1265.84 1139.83 1261.84 1135.5C1258.01 1131 1253.26 1127.58 1247.59 1125.25C1242.09 1122.92 1236.01 1121.75 1229.34 1121.75C1222.51 1121.75 1216.34 1122.92 1210.84 1125.25C1205.34 1127.58 1200.59 1131 1196.59 1135.5C1192.76 1139.83 1189.76 1145.17 1187.59 1151.5C1185.42 1157.83 1184.34 1165 1184.34 1173V1200.5C1184.34 1208.5 1185.42 1215.67 1187.59 1222C1189.76 1228.33 1192.76 1233.75 1196.59 1238.25C1200.59 1242.58 1205.34 1245.92 1210.84 1248.25C1216.34 1250.58 1222.51 1251.75 1229.34 1251.75ZM1396.82 1177.5L1377.57 1140.5H1376.82V1274H1349.82V1099.5H1381.32L1438.32 1196L1457.57 1233H1458.32V1099.5H1485.32V1274H1453.82L1396.82 1177.5ZM1650.54 1247.5H1649.54C1647.7 1256 1642.7 1263.08 1634.54 1268.75C1626.54 1274.25 1615.87 1277 1602.54 1277C1592.2 1277 1582.62 1275.08 1573.79 1271.25C1564.95 1267.25 1557.29 1261.5 1550.79 1254C1544.45 1246.33 1539.45 1236.92 1535.79 1225.75C1532.29 1214.42 1530.54 1201.42 1530.54 1186.75C1530.54 1172.25 1532.37 1159.42 1536.04 1148.25C1539.7 1136.92 1544.87 1127.42 1551.54 1119.75C1558.2 1112.08 1566.2 1106.33 1575.54 1102.5C1584.87 1098.5 1595.29 1096.5 1606.79 1096.5C1622.45 1096.5 1635.7 1100 1646.54 1107C1657.37 1113.83 1665.79 1123.42 1671.79 1135.75L1648.79 1149.25C1645.45 1141.08 1640.29 1134.5 1633.29 1129.5C1626.29 1124.33 1617.45 1121.75 1606.79 1121.75C1592.95 1121.75 1581.79 1126.17 1573.29 1135C1564.95 1143.83 1560.79 1156.33 1560.79 1172.5V1201C1560.79 1217.17 1564.95 1229.67 1573.29 1238.5C1581.79 1247.33 1592.95 1251.75 1606.79 1251.75C1612.29 1251.75 1617.54 1251.08 1622.54 1249.75C1627.54 1248.25 1631.87 1246.17 1635.54 1243.5C1639.37 1240.67 1642.37 1237.25 1644.54 1233.25C1646.87 1229.08 1648.04 1224.25 1648.04 1218.75V1205.25H1612.04V1181H1675.29V1274H1650.54V1247.5ZM1776.8 1277C1762.14 1277 1749.64 1274.33 1739.3 1269C1729.14 1263.67 1720.39 1256.5 1713.05 1247.5L1732.55 1229.25C1738.72 1236.75 1745.47 1242.42 1752.8 1246.25C1760.3 1250.08 1768.8 1252 1778.3 1252C1789.47 1252 1797.89 1249.5 1803.55 1244.5C1809.22 1239.5 1812.05 1232.75 1812.05 1224.25C1812.05 1217.42 1810.05 1212 1806.05 1208C1802.05 1204 1794.97 1201 1784.8 1199L1769.3 1196.25C1752.3 1193.08 1739.55 1187.5 1731.05 1179.5C1722.55 1171.5 1718.3 1160.5 1718.3 1146.5C1718.3 1138.83 1719.72 1131.92 1722.55 1125.75C1725.55 1119.42 1729.64 1114.17 1734.8 1110C1740.14 1105.67 1746.55 1102.33 1754.05 1100C1761.55 1097.67 1769.97 1096.5 1779.3 1096.5C1792.47 1096.5 1803.89 1098.83 1813.55 1103.5C1823.22 1108 1831.47 1114.58 1838.3 1123.25L1818.55 1140.75C1814.05 1134.92 1808.55 1130.25 1802.05 1126.75C1795.55 1123.25 1787.47 1121.5 1777.8 1121.5C1767.8 1121.5 1760.05 1123.5 1754.55 1127.5C1749.05 1131.5 1746.3 1137.33 1746.3 1145C1746.3 1152.33 1748.55 1157.83 1753.05 1161.5C1757.55 1165 1764.55 1167.67 1774.05 1169.5L1789.55 1172.75C1807.05 1176.08 1819.8 1181.75 1827.8 1189.75C1835.97 1197.75 1840.05 1208.75 1840.05 1222.75C1840.05 1230.92 1838.64 1238.33 1835.8 1245C1832.97 1251.67 1828.8 1257.42 1823.3 1262.25C1817.97 1266.92 1811.39 1270.58 1803.55 1273.25C1795.72 1275.75 1786.8 1277 1776.8 1277Z" fill="#0E1A24"/>
<path d="M649 945.148C793.871 785.609 829.118 651.426 1004.23 843.681C1179.33 1035.94 1205.13 985.059 1350 899.18" stroke="#C7A14A" stroke-width="65" stroke-linecap="square"/>
<path d="M649 766.279C793.871 606.74 829.118 472.557 1004.23 664.812C1179.33 857.067 1205.13 806.19 1350 720.311" stroke="#C7A14A" stroke-width="65" stroke-linecap="square"/>
</svg>
