<svg width="1706" height="806" viewBox="0 0 1706 806" fill="none" xmlns="http://www.w3.org/2000/svg">
<path d="M73.75 739.502C59.0833 739.502 46.5833 736.835 36.25 731.502C26.0833 726.169 17.3333 719.002 10 710.002L29.5 691.752C35.6667 699.252 42.4167 704.919 49.75 708.752C57.25 712.585 65.75 714.502 75.25 714.502C86.4167 714.502 94.8333 712.002 100.5 707.002C106.167 702.002 109 695.252 109 686.752C109 679.919 107 674.502 103 670.502C99 666.502 91.9167 663.502 81.75 661.502L66.25 658.752C49.25 655.585 36.5 650.002 28 642.002C19.5 634.002 15.25 623.002 15.25 609.002C15.25 601.335 16.6667 594.419 19.5 588.252C22.5 581.919 26.5833 576.669 31.75 572.502C37.0833 568.169 43.5 564.835 51 562.502C58.5 560.169 66.9167 559.002 76.25 559.002C89.4167 559.002 100.833 561.335 110.5 566.002C120.167 570.502 128.417 577.085 135.25 585.752L115.5 603.252C111 597.419 105.5 592.752 99 589.252C92.5 585.752 84.4167 584.002 74.75 584.002C64.75 584.002 57 586.002 51.5 590.002C46 594.002 43.25 599.835 43.25 607.502C43.25 614.835 45.5 620.335 50 624.002C54.5 627.502 61.5 630.169 71 632.002L86.5 635.252C104 638.585 116.75 644.252 124.75 652.252C132.917 660.252 137 671.252 137 685.252C137 693.419 135.583 700.835 132.75 707.502C129.917 714.169 125.75 719.919 120.25 724.752C114.917 729.419 108.333 733.085 100.5 735.752C92.6667 738.252 83.75 739.502 73.75 739.502ZM241.514 587.002V736.502H213.264V587.002H161.264V562.002H293.514V587.002H241.514ZM423.693 736.502L407.943 689.252H342.693L327.443 736.502H298.693L358.193 562.002H393.693L453.193 736.502H423.693ZM375.943 588.002H374.693L349.443 665.002H400.943L375.943 588.002ZM538.613 587.002V736.502H510.363V587.002H458.363V562.002H590.613V587.002H538.613ZM628.15 736.502V562.002H739.9V587.002H656.4V635.502H732.15V660.502H656.4V711.502H739.9V736.502H628.15ZM907.676 739.502C893.009 739.502 880.509 736.835 870.176 731.502C860.009 726.169 851.259 719.002 843.926 710.002L863.426 691.752C869.592 699.252 876.342 704.919 883.676 708.752C891.176 712.585 899.676 714.502 909.176 714.502C920.342 714.502 928.759 712.002 934.426 707.002C940.092 702.002 942.926 695.252 942.926 686.752C942.926 679.919 940.926 674.502 936.926 670.502C932.926 666.502 925.842 663.502 915.676 661.502L900.176 658.752C883.176 655.585 870.426 650.002 861.926 642.002C853.426 634.002 849.176 623.002 849.176 609.002C849.176 601.335 850.592 594.419 853.426 588.252C856.426 581.919 860.509 576.669 865.676 572.502C871.009 568.169 877.426 564.835 884.926 562.502C892.426 560.169 900.842 559.002 910.176 559.002C923.342 559.002 934.759 561.335 944.426 566.002C954.092 570.502 962.342 577.085 969.176 585.752L949.426 603.252C944.926 597.419 939.426 592.752 932.926 589.252C926.426 585.752 918.342 584.002 908.676 584.002C898.676 584.002 890.926 586.002 885.426 590.002C879.926 594.002 877.176 599.835 877.176 607.502C877.176 614.835 879.426 620.335 883.926 624.002C888.426 627.502 895.426 630.169 904.926 632.002L920.426 635.252C937.926 638.585 950.676 644.252 958.676 652.252C966.842 660.252 970.926 671.252 970.926 685.252C970.926 693.419 969.509 700.835 966.676 707.502C963.842 714.169 959.676 719.919 954.176 724.752C948.842 729.419 942.259 733.085 934.426 735.752C926.592 738.252 917.676 739.502 907.676 739.502ZM1082.34 739.502C1071.01 739.502 1060.67 737.585 1051.34 733.752C1042.17 729.752 1034.26 724.002 1027.59 716.502C1021.09 708.835 1016.01 699.419 1012.34 688.252C1008.84 676.919 1007.09 663.919 1007.09 649.252C1007.09 634.585 1008.84 621.669 1012.34 610.502C1016.01 599.169 1021.09 589.752 1027.59 582.252C1034.26 574.585 1042.17 568.835 1051.34 565.002C1060.67 561.002 1071.01 559.002 1082.34 559.002C1093.67 559.002 1103.92 561.002 1113.09 565.002C1122.42 568.835 1130.34 574.585 1136.84 582.252C1143.51 589.752 1148.59 599.169 1152.09 610.502C1155.76 621.669 1157.59 634.585 1157.59 649.252C1157.59 663.919 1155.76 676.919 1152.09 688.252C1148.59 699.419 1143.51 708.835 1136.84 716.502C1130.34 724.002 1122.42 729.752 1113.09 733.752C1103.92 737.585 1093.67 739.502 1082.34 739.502ZM1082.34 714.252C1089.01 714.252 1095.09 713.085 1100.59 710.752C1106.26 708.419 1111.01 705.085 1114.84 700.752C1118.84 696.252 1121.92 690.835 1124.09 684.502C1126.26 678.169 1127.34 671.002 1127.34 663.002V635.502C1127.34 627.502 1126.26 620.335 1124.09 614.002C1121.92 607.669 1118.84 602.335 1114.84 598.002C1111.01 593.502 1106.26 590.085 1100.59 587.752C1095.09 585.419 1089.01 584.252 1082.34 584.252C1075.51 584.252 1069.34 585.419 1063.84 587.752C1058.34 590.085 1053.59 593.502 1049.59 598.002C1045.76 602.335 1042.76 607.669 1040.59 614.002C1038.42 620.335 1037.34 627.502 1037.34 635.502V663.002C1037.34 671.002 1038.42 678.169 1040.59 684.502C1042.76 690.835 1045.76 696.252 1049.59 700.752C1053.59 705.085 1058.34 708.419 1063.84 710.752C1069.34 713.085 1075.51 714.252 1082.34 714.252ZM1249.82 640.002L1230.57 603.002H1229.82V736.502H1202.82V562.002H1234.32L1291.32 658.502L1310.57 695.502H1311.32V562.002H1338.32V736.502H1306.82L1249.82 640.002ZM1503.54 710.002H1502.54C1500.7 718.502 1495.7 725.585 1487.54 731.252C1479.54 736.752 1468.87 739.502 1455.54 739.502C1445.2 739.502 1435.62 737.585 1426.79 733.752C1417.95 729.752 1410.29 724.002 1403.79 716.502C1397.45 708.835 1392.45 699.419 1388.79 688.252C1385.29 676.919 1383.54 663.919 1383.54 649.252C1383.54 634.752 1385.37 621.919 1389.04 610.752C1392.7 599.419 1397.87 589.919 1404.54 582.252C1411.2 574.585 1419.2 568.835 1428.54 565.002C1437.87 561.002 1448.29 559.002 1459.79 559.002C1475.45 559.002 1488.7 562.502 1499.54 569.502C1510.37 576.335 1518.79 585.919 1524.79 598.252L1501.79 611.752C1498.45 603.585 1493.29 597.002 1486.29 592.002C1479.29 586.835 1470.45 584.252 1459.79 584.252C1445.95 584.252 1434.79 588.669 1426.29 597.502C1417.95 606.335 1413.79 618.835 1413.79 635.002V663.502C1413.79 679.669 1417.95 692.169 1426.29 701.002C1434.79 709.835 1445.95 714.252 1459.79 714.252C1465.29 714.252 1470.54 713.585 1475.54 712.252C1480.54 710.752 1484.87 708.669 1488.54 706.002C1492.37 703.169 1495.37 699.752 1497.54 695.752C1499.87 691.585 1501.04 686.752 1501.04 681.252V667.752H1465.04V643.502H1528.29V736.502H1503.54V710.002ZM1629.8 739.502C1615.14 739.502 1602.64 736.835 1592.3 731.502C1582.14 726.169 1573.39 719.002 1566.05 710.002L1585.55 691.752C1591.72 699.252 1598.47 704.919 1605.8 708.752C1613.3 712.585 1621.8 714.502 1631.3 714.502C1642.47 714.502 1650.89 712.002 1656.55 707.002C1662.22 702.002 1665.05 695.252 1665.05 686.752C1665.05 679.919 1663.05 674.502 1659.05 670.502C1655.05 666.502 1647.97 663.502 1637.8 661.502L1622.3 658.752C1605.3 655.585 1592.55 650.002 1584.05 642.002C1575.55 634.002 1571.3 623.002 1571.3 609.002C1571.3 601.335 1572.72 594.419 1575.55 588.252C1578.55 581.919 1582.64 576.669 1587.8 572.502C1593.14 568.169 1599.55 564.835 1607.05 562.502C1614.55 560.169 1622.97 559.002 1632.3 559.002C1645.47 559.002 1656.89 561.335 1666.55 566.002C1676.22 570.502 1684.47 577.085 1691.3 585.752L1671.55 603.252C1667.05 597.419 1661.55 592.752 1655.05 589.252C1648.55 585.752 1640.47 584.002 1630.8 584.002C1620.8 584.002 1613.05 586.002 1607.55 590.002C1602.05 594.002 1599.3 599.835 1599.3 607.502C1599.3 614.835 1601.55 620.335 1606.05 624.002C1610.55 627.502 1617.55 630.169 1627.05 632.002L1642.55 635.252C1660.05 638.585 1672.8 644.252 1680.8 652.252C1688.97 660.252 1693.05 671.252 1693.05 685.252C1693.05 693.419 1691.64 700.835 1688.8 707.502C1685.97 714.169 1681.8 719.919 1676.3 724.752C1670.97 729.419 1664.39 733.085 1656.55 735.752C1648.72 738.252 1639.8 739.502 1629.8 739.502Z" fill="white"/>
<path d="M502 407.65C646.871 248.111 682.118 113.928 857.225 306.183C1032.33 498.438 1058.13 447.561 1203 361.682" stroke="#C7A14A" stroke-width="65" stroke-linecap="square"/>
<path d="M502 228.781C646.871 69.2424 682.118 -64.9411 857.225 127.314C1032.33 319.569 1058.13 268.692 1203 182.813" stroke="#C7A14A" stroke-width="65" stroke-linecap="square"/>
</svg>
